<?xml version="1.0" encoding="UTF-8"?>
<svg id="Layer_2" data-name="Layer 2" xmlns="http://www.w3.org/2000/svg" viewBox="0 0 22.83 22.82">
  <defs>
    <style>
      .cls-1 {
        fill: #fff;
      }

      .cls-2 {
        fill: #003034;
      }
    </style>
  </defs>
  <g id="Layer_1-2" data-name="Layer 1">
    <g>
      <g>
        <path class="cls-2" d="M3.17,19.08l-.21-.22c-1.59-1.72-2.47-3.97-2.47-6.31C.5,7.41,4.68,3.23,9.81,3.23s9.31,4.18,9.31,9.31-4.18,9.31-9.31,9.31c-1.54,0-3.06-.38-4.41-1.11l-.21-.11-3.06,1.28,1.03-2.84Z"/>
        <path class="cls-1" d="M9.81,3.73c4.86,0,8.81,3.95,8.81,8.81s-3.95,8.81-8.81,8.81c-1.45,0-2.9-.36-4.17-1.05l-.42-.23-.44.18-1.02.43-.76.32.28-.78.26-.7.21-.57-.41-.45c-1.51-1.63-2.33-3.75-2.33-5.97C1,7.69,4.95,3.73,9.81,3.73M9.81,2.73C4.39,2.73,0,7.13,0,12.55c0,2.57.99,4.9,2.6,6.65l-.26.7-1.06,2.92,2.87-1.2,1.02-.43c1.38.74,2.96,1.17,4.64,1.17,5.42,0,9.81-4.39,9.81-9.81S15.24,2.73,9.81,2.73h0Z"/>
      </g>
      <path class="cls-1" d="M20.24,16.47c1.61-1.75,2.6-4.09,2.6-6.65C22.83,4.39,18.44,0,13.02,0S3.21,4.39,3.21,9.81s4.39,9.81,9.81,9.81c1.68,0,3.26-.42,4.64-1.17l1.02.43,2.87,1.2-1.06-2.92-.26-.7Z"/>
      <g>
        <path class="cls-2" d="M13.02,14.27c-1.32-.02-2.52-.5-3.51-1.47-.35-.34-.37-.87-.05-1.22.32-.35.85-.4,1.22-.07.49.45,1.03.8,1.7.93,1.08.22,2.06-.02,2.9-.74.21-.18.4-.37.69-.4.39-.04.73.15.9.49.16.34.09.73-.18,1.01-.48.48-1.04.85-1.67,1.11-.61.25-1.25.37-1.98.37Z"/>
        <path class="cls-2" d="M10.05,8.47c-.64,0-1.16-.52-1.16-1.16,0-.64.51-1.17,1.16-1.17.63,0,1.19.54,1.18,1.18,0,.64-.53,1.16-1.17,1.16Z"/>
        <path class="cls-2" d="M17.3,7.34c-.01.64-.54,1.15-1.19,1.14-.64-.01-1.17-.56-1.15-1.18.02-.65.56-1.17,1.18-1.15.65.02,1.16.55,1.15,1.2Z"/>
      </g>
    </g>
  </g>
</svg>