<?xml version="1.0" encoding="UTF-8"?>
<svg id="Layer_2" data-name="Layer 2" xmlns="http://www.w3.org/2000/svg" viewBox="0 0 29.46 25.27">
  <defs>
    <style>
      .cls-1 {
        fill: #fff;
      }

      .cls-2 {
        fill: #003034;
      }
    </style>
  </defs>
  <g id="Layer_1-2" data-name="Layer 1">
    <g>
      <path class="cls-1" d="M21.05,20.46v3.98c0,.4-.63.82-1.02.83-.41,0-1.08-.39-1.08-.83v-3.98c-.24.15-.36.41-.64.51-1.03.4-1.9-.74-1.24-1.63.29-.39,1.88-1.98,2.27-2.27s.87-.32,1.28-.03c.34.24,2.04,1.95,2.3,2.3.66.9-.2,2.03-1.24,1.63-.28-.11-.4-.36-.64-.51Z"/>
      <path class="cls-1" d="M27.36,21.64c.24-.15.36-.41.64-.51,1.03-.4,1.9.74,1.24,1.63-.29.39-1.88,1.98-2.27,2.27s-.87.32-1.28.03c-.34-.24-2.04-1.95-2.3-2.3-.66-.9.2-2.03,1.24-1.63.28.11.4.36.64.51v-3.98c0-.4.63-.82,1.02-.83.41,0,1.08.39,1.08.83v3.98Z"/>
      <path class="cls-1" d="M17.62,1.7C11.44-2.09,3.25.73.75,7.49c-3.15,8.51,4.12,17.08,13.01,15.45.69-.13,1.36-.37,2.02-.57-1.24-1.08-1.41-3-.39-4.3.43-.55,2.47-2.58,3.02-2.9,1.34-.76,2.9-.47,3.94.63,2.04-5.23.02-11.18-4.74-14.1Z"/>
      <polygon class="cls-2" points="16.06 8.34 16.06 6.13 7.24 6.13 7.24 8.34 10.26 8.34 10.26 10.93 8.56 11.73 8.56 13.15 10.26 12.34 10.26 12.95 8.56 13.76 8.56 15.16 10.26 14.35 10.26 15.96 13.04 15.96 13.04 13.04 14.75 12.23 14.75 10.81 13.04 11.62 13.04 11.02 14.75 10.2 14.75 8.8 13.04 9.61 13.04 8.34 16.06 8.34"/>
    </g>
  </g>
</svg>