<?xml version="1.0" encoding="UTF-8"?>
<svg id="Layer_2" data-name="Layer 2" xmlns="http://www.w3.org/2000/svg" viewBox="0 0 23.19 23.19">
  <defs>
    <style>
      .cls-1 {
        fill: #fff;
      }

      .cls-2 {
        fill: #003034;
      }
    </style>
  </defs>
  <g id="Layer_1-2" data-name="Layer 1">
    <g>
      <path class="cls-1" d="M14.76,23.19h-6.6l-2.22-.17c-3.33-.45-5.3-2.41-5.74-5.75L.02,15.04C.08,12.85-.05,10.63.02,8.44c.06-1.81.21-3.86,1.3-5.39C3.03.64,5.6.38,8.35.29c2.54-.08,5.63-.12,8.14.11.17.02,1.29.15,1.29.25-1.4,2.59.63,5.5,3.54,5.19.45-.05.76-.25,1.15-.39.06-.02.05-.08.12,0,.21.93.21,1.88.25,2.84.11,2.82.4,8.58-.65,11.07-1.34,3.17-4.35,3.71-7.43,3.81ZM17.16,7.52c-.24.04-.45.21-.58.41-.71,1.04-1.17,2.88-1.91,3.81-.47.59-1.31.73-1.92.28-.39-.29-.46-.68-.7-1.06-1.23-2-4.15-2.02-5.39-.02-.71,1.14-1.19,2.62-1.87,3.8-.4,1.03.92,1.77,1.56.79.69-1.05,1.14-2.78,1.87-3.74.46-.62,1.31-.78,1.94-.31.39.29.46.68.7,1.06,1.22,2,4.15,2.01,5.39.02.73-1.16,1.22-2.67,1.9-3.88.23-.64-.32-1.26-.99-1.16Z"/>
      <circle class="cls-1" cx="20.84" cy="2.35" r="2.34"/>
      <path class="cls-2" d="M18.39,7.47c-.32-.38-.81-.56-1.3-.49-.35.06-.68.28-.92.62-.36.53-.66,1.23-.94,1.91-.3.7-.6,1.43-.95,1.88-.31.39-.85.47-1.23.19-.16-.12-.24-.27-.36-.52-.06-.13-.13-.27-.21-.4-.67-1.09-1.83-1.74-3.11-1.75h-.01c-1.28,0-2.44.64-3.11,1.72-.4.65-.73,1.38-1.05,2.1-.26.59-.53,1.19-.86,1.78-.31.79.08,1.49.63,1.78.2.1.41.15.62.15.46,0,.9-.24,1.19-.68.35-.53.64-1.21.91-1.86.29-.69.59-1.4.94-1.86.31-.41.85-.5,1.24-.21.16.12.24.27.36.52.06.13.13.27.21.4.67,1.09,1.83,1.74,3.11,1.75,1.26,0,2.45-.64,3.12-1.72.42-.67.76-1.45,1.1-2.2.27-.61.52-1.18.85-1.77.16-.46.08-.96-.23-1.33Z"/>
    </g>
  </g>
</svg>