<?xml version="1.0" encoding="UTF-8"?>
<svg id="Layer_2" data-name="Layer 2" xmlns="http://www.w3.org/2000/svg" viewBox="0 0 22.83 22.9">
  <defs>
    <style>
      .cls-1 {
        fill: #fff;
      }
    </style>
  </defs>
  <g id="Layer_1-2" data-name="Layer 1">
    <g>
      <path class="cls-1" d="M8.67,22.9v-3.13c-.49.37-1.01.49-1.57.32-.35-.11-.62-.31-.83-.61-.42-.6-.39-1.41.09-1.97.57-.66,1.24-.72,2.31-.21v-3.05h3.05c-.52,1.08-.43,1.8.27,2.34.6.47,1.44.45,2.02-.04.67-.56.74-1.31.21-2.31h3.1c0,.09,0,.18,0,.26,0,2.35,0,4.71,0,7.06,0,.78-.18,1.05-.89,1.33h-7.77Z"/>
      <path class="cls-1" d="M22.83,7.45c-.93.44-1.86.88-2.82,1.34.53.27.85.68.95,1.24.07.37,0,.73-.19,1.06-.38.66-1.16.97-1.88.74-.81-.25-1.19-.92-1.1-1.97l-2.76,1.31c-.44-.93-.88-1.85-1.33-2.79.47.09.91.05,1.31-.22.4-.27.65-.64.72-1.12.11-.74-.29-1.44-.98-1.73-.77-.32-1.42-.07-2.12.82-.44-.92-.88-1.84-1.33-2.8.07-.03.14-.07.22-.1,2.12-1.01,4.25-2.01,6.37-3.04.6-.29,1.11-.29,1.59.2,1.12,2.35,2.24,4.7,3.36,7.05Z"/>
      <path class="cls-1" d="M.86,22.9c-.42-.15-.74-.4-.83-.86-.02-.08-.02-.16-.02-.23C0,19.34,0,16.88,0,14.41c0-.05,0-.1,0-.17h3.09c-.53-1.03-.45-1.79.24-2.34.59-.47,1.44-.47,2.02.01.68.56.76,1.33.23,2.33h1.77v1.41c-.94.11-1.71.55-2.23,1.36-.35.55-.5,1.15-.44,1.8.11,1.29,1.08,2.46,2.69,2.65v1.44H.86Z"/>
      <path class="cls-1" d="M8.66,5.59v3.12c.47-.35.97-.49,1.51-.34.36.1.66.31.88.61.44.62.4,1.46-.11,2.02-.58.64-1.32.7-2.27.17v1.77h-1.41c-.11-.93-.53-1.68-1.33-2.21-.52-.34-1.09-.49-1.71-.47-1.16.05-2.54.87-2.78,2.68H0c0-.07,0-.14,0-.21,0-2,0-3.99,0-5.99,0-.71.44-1.17,1.14-1.17,2.45,0,4.91,0,7.36,0,.04,0,.08,0,.16.01Z"/>
    </g>
  </g>
</svg>