<?xml version="1.0" encoding="UTF-8"?>
<svg id="Layer_2" data-name="Layer 2" xmlns="http://www.w3.org/2000/svg" viewBox="0 0 22.93 19.26">
  <defs>
    <style>
      .cls-1 {
        fill: #fff;
      }
    </style>
  </defs>
  <g id="Layer_1-2" data-name="Layer 1">
    <path class="cls-1" d="M22.41.51c-.33-.33-.78-.51-1.25-.51H1.76c-.47,0-.92.18-1.25.51-.33.33-.52.77-.52,1.24v16.63c0,.15.04.3.11.43.07.13.18.24.31.32.13.08.27.12.42.13.15,0,.3-.02.43-.09l3.13-1.56,3.13,1.56c.12.06.26.09.39.09s.27-.03.39-.09l2.93-1.45h.41l2.93,1.45c.12.06.26.09.39.09s.27-.03.39-.09l3.13-1.56,3.13,1.56c.13.07.28.1.43.09.15,0,.3-.05.42-.13.13-.08.23-.19.31-.32.07-.13.11-.28.11-.43V1.75c0-.46-.19-.91-.52-1.24ZM17.38,11.12c-.17.16-.39.26-.62.26H6.17c-.23,0-.46-.09-.62-.26-.17-.16-.26-.39-.26-.62s.09-.45.26-.62c.17-.16.39-.26.62-.26h10.58c.23,0,.46.09.62.26.17.16.26.39.26.62s-.09.45-.26.62ZM16.76,8.18H6.17c-.48,0-.88-.39-.88-.88s.39-.88.88-.88h10.6c.48,0,.88.39.88.88s-.39.88-.88.88Z"/>
  </g>
</svg>