<?xml version="1.0" encoding="UTF-8"?>
<svg id="Layer_2" data-name="Layer 2" xmlns="http://www.w3.org/2000/svg" viewBox="0 0 22.93 21.6">
  <defs>
    <style>
      .cls-1 {
        fill: #fff;
      }

      .cls-2 {
        fill: #003034;
      }
    </style>
  </defs>
  <g id="Layer_1-2" data-name="Layer 1">
    <g>
      <path class="cls-1" d="M1.71,9.77h19.51c.94,0,1.71.77,1.71,1.71v5.45c0,2.58-2.09,4.67-4.67,4.67H4.67c-2.58,0-4.67-2.09-4.67-4.67v-5.45c0-.94.77-1.71,1.71-1.71Z"/>
      <path class="cls-1" d="M16.84.08c.87-.09,3.58-.12,4.38.05,1.16.26,1.58,1.14,1.66,2.25.07.96.11,3.6-.21,4.42-.28.7-.96,1.18-1.71,1.24-1.05.09-3.2.1-4.24,0-.88-.09-1.6-.76-1.79-1.61-.17-.78-.17-3.91,0-4.69.22-.98.93-1.55,1.92-1.66ZM19.59,4.47V1.82c0-.14-.27-.49-.4-.54-.19-.08-.5-.07-.68.02-.1.05-.37.38-.37.47v2.71c-.68-.89-1.9-.07-1.2.84.23.3,1.07,1.13,1.37,1.37s.49.33.85.18c.21-.08,1.45-1.31,1.63-1.55.7-.91-.53-1.73-1.2-.84Z"/>
      <path class="cls-2" d="M19.59,4.47c.68-.89,1.9-.07,1.2.84-.18.23-1.43,1.46-1.63,1.55-.36.15-.56.05-.85-.18s-1.14-1.07-1.37-1.37c-.7-.91.53-1.73,1.2-.84V1.76c0-.08.27-.42.37-.47.18-.09.49-.1.68-.02.14.06.4.41.4.54v2.65Z"/>
      <path class="cls-1" d="M4.4,1.89h7.11c.94,0,1.71.77,1.71,1.71v2.69c0,.94-.77,1.71-1.71,1.71H1.71C.77,8,0,7.23,0,6.29H0C0,3.86,1.97,1.89,4.4,1.89Z"/>
      <rect class="cls-2" x="3.73" y="16.07" width="3.99" height="1.82" rx=".79" ry=".79"/>
      <rect class="cls-2" x="8.64" y="16.07" width="6.2" height="1.82" rx=".91" ry=".91"/>
    </g>
  </g>
</svg>