<?xml version="1.0" encoding="UTF-8"?>
<svg id="Layer_2" data-name="Layer 2" xmlns="http://www.w3.org/2000/svg" viewBox="0 0 22.88 23.59">
  <defs>
    <style>
      .cls-1 {
        fill: #fff;
      }

      .cls-2 {
        fill: #003034;
      }
    </style>
  </defs>
  <g id="Layer_1-2" data-name="Layer 1">
    <g>
      <path class="cls-1" d="M11.44,9.04c-2.49,0-4.52-2.03-4.52-4.52S8.95,0,11.44,0s4.52,2.03,4.52,4.52-2.03,4.52-4.52,4.52ZM11.44,1.84c-1.48,0-2.68,1.2-2.68,2.68s1.2,2.68,2.68,2.68,2.68-1.2,2.68-2.68-1.2-2.68-2.68-2.68Z"/>
      <path class="cls-1" d="M16.25,4.52H6.63c-1.99,0-3.7,1.33-4.09,3.19L.07,19.58c-.43,2.07,1.24,4.01,3.47,4.01h15.8c2.23,0,3.9-1.93,3.47-4.01l-2.47-11.87c-.39-1.85-2.1-3.19-4.09-3.19Z"/>
      <path class="cls-2" d="M16.89,10.4c-.58-.58-1.52-.58-2.1,0l-3.93,3.93-1.8-1.8c-.58-.58-1.52-.58-2.1,0-.58.58-.58,1.52,0,2.1l2.86,2.86c.58.58,1.52.58,2.1,0h0s.03-.03.04-.05c0,0,0,0,0,0l4.93-4.93c.58-.58.58-1.52,0-2.1Z"/>
    </g>
  </g>
</svg>