<?xml version="1.0" encoding="UTF-8"?>
<svg id="Layer_2" data-name="Layer 2" xmlns="http://www.w3.org/2000/svg" viewBox="0 0 22.96 22">
  <defs>
    <style>
      .cls-1 {
        fill: #fff;
      }

      .cls-2 {
        fill: #003034;
      }
    </style>
  </defs>
  <g id="Layer_1-2" data-name="Layer 1">
    <g>
      <path class="cls-1" d="M20.12,0H2.73C1.28.17.17,1.04,0,2.14v17.52c0,.13.05.27.14.38.12.16,2.13,1.67,2.37,1.8,1.11.59,1.92-.66,2.68-1.08.14-.02,1.24.95,1.49,1.08,1.11.59,1.92-.66,2.68-1.08.14-.02,1.24.95,1.49,1.08,1.11.59,1.92-.66,2.68-1.08.14-.02,1.24.95,1.49,1.08,1.11.59,1.92-.66,2.68-1.08.8.35,1.53,1.61,2.66,1.12.21-.09,2.22-1.6,2.39-1.78.11-.12.18-.25.2-.39V2.18c-.14-1.15-1.32-2.05-2.84-2.18ZM14.2,9.36c-.38-.12-.64-.4-.64-.73s.26-.61.64-.73c-.38.12-.64.4-.64.73s.26.61.64.73ZM7.89,9.35c.1.04.22.07.34.08-.12-.01-.23-.04-.34-.08ZM14.61,9.43h0c.58,0,1.05-.35,1.05-.79s-.47-.79-1.05-.79h0c.58,0,1.05.35,1.05.79s-.47.79-1.05.79ZM14.4,3.15c.12-.01.24-.02.35,0-.11-.01-.22,0-.35,0-.15.02-.33.08-.44.16l-6.46,4.86c-.34.37-.22.77.11,1.02-.33-.25-.45-.65-.11-1.02l6.46-4.86c.11-.08.29-.14.44-.16ZM8.35,4.71c.14,0,.28-.02.41-.06-.13.04-.26.06-.41.06h0ZM8.76,3.2c-.13-.04-.26-.06-.41-.06h0c.14,0,.28.02.41.06ZM7.5,3.49c-.11.13-.19.27-.19.43s.08.31.19.43c-.11-.13-.19-.27-.19-.43s.08-.31.19-.43ZM5.12,13.35c-.3-.03-.53-.13-.69-.26.16.13.39.23.69.26h0ZM17.84,13.35h0c.24-.03.41-.1.56-.19-.15.09-.33.17-.56.19ZM18.55,12.06c-.16-.14-.39-.25-.71-.28h0c.32.03.55.14.71.28.16.14.24.32.24.5,0-.18-.08-.36-.24-.5Z"/>
      <g>
        <path class="cls-2" d="M5.01,14.14l12.83-.02c1.26.18,1.26,1.91,0,2.09H5.12c-1.2-.16-1.28-1.78-.11-2.07Z"/>
        <path class="cls-2" d="M14.4,2.66c.97-.16,1.6.84,1.06,1.65l-6.49,6.49c-.98.69-2.15-.49-1.47-1.47l6.46-6.46c.12-.11.29-.19.44-.21Z"/>
        <circle class="cls-2" cx="14.61" cy="9.95" r="1.05"/>
        <circle class="cls-2" cx="8.35" cy="3.69" r="1.05"/>
      </g>
    </g>
  </g>
</svg>