<?xml version="1.0" encoding="UTF-8"?>
<svg id="Layer_2" data-name="Layer 2" xmlns="http://www.w3.org/2000/svg" viewBox="0 0 22.83 21.65">
  <defs>
    <style>
      .cls-1 {
        fill: #fff;
      }
    </style>
  </defs>
  <g id="Layer_1-2" data-name="Layer 1">
    <path class="cls-1" d="M7.98,0c.47.04.84.24,1.13.59.59.71,1.35,1.09,2.28,1.1.91,0,1.66-.34,2.27-1.01.62-.69,1.08-.8,1.94-.47,1.09.42,2.08,1.01,2.98,1.74.61.49.77,1.02.51,1.77-.58,1.71.41,3.49,2.16,3.9.12.03.25.04.37.07.55.16.91.52,1.02,1.08.26,1.33.26,2.66,0,3.99-.12.61-.58,1.05-1.21,1.15-1.99.32-3.08,2.18-2.38,4.06.24.66.09,1.24-.45,1.68-.89.74-1.88,1.32-2.95,1.76-.63.26-1.26.09-1.68-.44-1.33-1.64-3.54-1.62-4.83.06-.43.56-1.05.74-1.71.49-1.14-.43-2.19-1.03-3.14-1.8-.61-.5-.75-1.06-.46-1.79.47-1.18.29-2.26-.55-3.2-.46-.52-1.06-.82-1.75-.91-.86-.12-1.26-.5-1.4-1.36-.2-1.25-.16-2.5.09-3.74.13-.67.6-1.08,1.3-1.17,1.58-.2,2.69-1.49,2.62-3.09-.01-.32-.1-.64-.2-.95-.22-.68-.07-1.27.5-1.71.91-.71,1.91-1.27,2.99-1.67.18-.07.37-.09.55-.14ZM11.44,7.03c-2.11,0-3.82,1.7-3.82,3.8,0,2.11,1.7,3.81,3.81,3.81,2.1,0,3.8-1.71,3.8-3.83,0-2.08-1.71-3.79-3.79-3.79Z"/>
  </g>
</svg>