<?xml version="1.0" encoding="UTF-8"?>
<svg id="Layer_2" data-name="Layer 2" xmlns="http://www.w3.org/2000/svg" viewBox="0 0 32 32">
  <defs>
    <style>
      .cls-1 {
        fill: #fff;
      }

      .cls-2 {
        fill: #003034;
      }
    </style>
  </defs>
  <g id="Layer_1-2" data-name="Layer 1">
    <g>
      <rect class="cls-2" width="32" height="32" rx="8" ry="8"/>
      <path class="cls-1" d="M21.62,13.47h-7.59v-1.97c0-.52.21-1.02.58-1.39.37-.37.87-.58,1.39-.58s1.02.21,1.39.58.58.87.58,1.39c0,.15.06.29.16.4.11.11.25.16.4.16s.29-.06.4-.16c.11-.11.16-.25.16-.4,0-.82-.33-1.61-.91-2.19-.58-.58-1.37-.91-2.19-.91s-1.61.33-2.19.91c-.58.58-.91,1.37-.91,2.19v1.97h-2.53c-.3,0-.58.12-.8.33-.21.21-.33.5-.33.8v7.88c0,.3.12.58.33.8.21.21.5.33.8.33h11.25c.3,0,.58-.12.8-.33s.33-.5.33-.8v-7.88c0-.3-.12-.58-.33-.8-.21-.21-.5-.33-.8-.33ZM16,19.37c-.17,0-.33-.05-.47-.14-.14-.09-.25-.22-.31-.38-.06-.15-.08-.32-.05-.49.03-.16.11-.31.23-.43s.27-.2.43-.23c.16-.03.33-.02.49.05.15.06.29.17.38.31.09.14.14.3.14.47,0,.22-.09.44-.25.6-.16.16-.37.25-.6.25Z"/>
    </g>
  </g>
</svg>